<?xml version="1.0" encoding="UTF-8"?>
<svg width="49px" height="49px" viewBox="0 0 49 49" version="1.1" xmlns="http://www.w3.org/2000/svg" xmlns:xlink="http://www.w3.org/1999/xlink">
    <!-- Generator: Sketch 54 (76480) - https://sketchapp.com -->
    <title>python</title>
    <desc>Created with Sketch.</desc>
    <defs>
        <linearGradient x1="12.7939646%" y1="12.0393928%" x2="79.7711766%" y2="78.2008538%" id="linearGradient-1">
            <stop stop-color="#387EB8" offset="0%"></stop>
            <stop stop-color="#366994" offset="100%"></stop>
        </linearGradient>
        <linearGradient x1="18.9896686%" y1="20.5791813%" x2="90.923458%" y2="88.4290372%" id="linearGradient-2">
            <stop stop-color="#FFE052" offset="0%"></stop>
            <stop stop-color="#FFC331" offset="100%"></stop>
        </linearGradient>
    </defs>
    <g id="Page-1" stroke="none" stroke-width="1" fill="none" fill-rule="evenodd">
        <g id="python" fill-rule="nonzero">
            <path d="M24.0980298,0 C11.7740251,8.77060797e-07 12.5436154,5.33253974 12.5436154,5.33253974 L12.5573543,10.856996 L24.3178525,10.856996 L24.3178525,12.5157038 L7.8861284,12.5157038 C7.8861284,12.5157038 0,11.623335 0,24.0306995 C-8.78978735e-07,36.4380614 6.88318872,35.9980702 6.88318872,35.9980702 L10.9911197,35.9980702 L10.9911197,30.2405723 C10.9911197,30.2405723 10.7696917,23.3726998 17.7643972,23.3726998 L29.428723,23.3726998 C29.428723,23.3726998 35.9821782,23.478401 35.9821782,17.0531605 L35.9821782,6.429206 C35.9821782,6.42920511 36.9771736,0 24.0980298,0 L24.0980298,0 L24.0980298,0 Z M17.6132694,3.71495697 C18.7833527,3.71495612 19.72906,4.65855977 19.72906,5.82603954 C19.7290607,6.99351931 18.7833527,7.93712211 17.6132694,7.93712211 C16.443186,7.93712298 15.4974788,6.99351931 15.4974788,5.82603954 C15.4974779,4.65855977 16.443186,3.71495697 17.6132694,3.71495697 L17.6132694,3.71495697 L17.6132694,3.71495697 Z" id="Shape" fill="url(#linearGradient-1)"></path>
            <path d="M24.9019706,49 C37.2259787,49 36.4563849,43.6674606 36.4563849,43.6674606 L36.4426461,38.1430049 L24.6821482,38.1430049 L24.6821482,36.4842973 L41.1138718,36.4842973 C41.1138718,36.4842973 49,37.3766634 49,24.9692982 C49.0000044,12.5619386 42.1168114,13.0019298 42.1168114,13.0019298 L38.0088805,13.0019298 L38.0088805,18.7594259 C38.0088805,18.7594259 38.230312,25.6272978 31.2356032,25.6272978 L19.5712766,25.6272978 C19.5712766,25.6272978 13.0178218,25.5215968 13.0178218,31.946841 L13.0178218,42.5707946 C13.0178218,42.5707946 12.0228266,49 24.9019706,49 L24.9019706,49 L24.9019706,49 Z M31.3867309,45.2850434 C30.2166473,45.2850434 29.2709405,44.341441 29.2709405,43.173961 C29.2709405,42.0064807 30.2166473,41.0628785 31.3867309,41.0628785 C32.5568148,41.0628785 33.5025214,42.0064807 33.5025214,43.173961 C33.5025258,44.341441 32.5568148,45.2850434 31.3867309,45.2850434 L31.3867309,45.2850434 L31.3867309,45.2850434 Z" id="Shape" fill="url(#linearGradient-2)"></path>
        </g>
    </g>
</svg>